<svg viewBox="0 0 16 16"><path fill="#828282" d="m 1.0570825,2.304 q 0,-0.96 2.032,-1.632 2.032,-0.672 4.896,-0.672 2.8799995,0 4.9039995,0.672 2.024,0.672 2.024,1.632 0,0.192 -1.152,7.04 -0.144,0.736 -1.776,1.424 -1.632,0.688 -3.9999995,0.688 -2.368,0 -4,-0.688 -1.632,-0.688 -1.76,-1.424 -1.168,-6.624 -1.168,-7.04 z m 1.712,9.296 0,-0.064 q 0,-0.272 0.24,-0.272 0.096,0 0.192,0.08 0.752,0.592 1.952,0.928 1.2,0.336 2.016,0.368 l 0.816,0.048 q 0.1279995,0 0.3440005,-0.008 0.215999,-0.008 0.84,-0.08 0.624,-0.072 1.191999,-0.2 0.568,-0.128 1.256,-0.4 0.688,-0.272 1.168,-0.656 l 0.176,-0.08 q 0.256,0 0.256,0.272 0,0.032 -0.016,0.064 -0.352,1.936 -0.48,2.576 -0.176,0.784 -1.536,1.304 Q 9.825083,16 7.9850825,16 q -1.84,0 -3.2,-0.52 -1.36,-0.52 -1.52,-1.304 -0.304,-1.52 -0.496,-2.576 z m 0.784,-9.536 q 0,0.384 1.304,0.664 1.304,0.28 3.128,0.28 1.8400005,0 3.1439995,-0.272 1.304,-0.272 1.304,-0.656 0,-0.4 -1.304,-0.68 -1.303999,-0.28 -3.1439995,-0.28 -1.84,0 -3.136,0.272 -1.296,0.272 -1.296,0.672 z m 2.224,5.648 q 0,0.912 0.648,1.56 0.648,0.648 1.56,0.648 0.9120005,0 1.5599995,-0.648 0.648,-0.648 0.648,-1.56 0,-0.912 -0.648,-1.56 -0.647999,-0.648 -1.5599995,-0.648 -0.912,0 -1.56,0.648 -0.648,0.648 -0.648,1.56 z m 1.104,0 q 0,0.448 0.32,0.776 0.32,0.328 0.784,0.328 0.4639995,0 0.7840005,-0.328 0.32,-0.328 0.32,-0.776 0,-0.448 -0.32,-0.776 -0.320001,-0.328 -0.7840005,-0.328 -0.464,0 -0.784,0.328 -0.32,0.328 -0.32,0.776 z" /></svg>