<svg viewBox="0 0 16 16"><g transform="matrix(0.03125,0,0,0.03125,0,0.07277948)"><rect y="-512" x="-512" width="512" transform="scale(-1,-1)" fill="#828282" ry="2240" rx="2240" height="512" /><g transform="matrix(1.0416667,0,0,1.0416667,-10.666675,-10.666674)"><path style="fill:#ffffff" d="m 296,95.983998 c 0,0 -73.472,0 -98.624,0 -45.12,0 -87.6,31.664002 -87.6,71.248002 0,40.448 30.752,71.904 76.656,71.904 3.2,0 6.304,-0.72 9.344,-0.944 -3.008,5.68 -5.088,11.792 -5.088,18.464 0,11.248 6.032,20.224 13.664,27.664 -5.728,0 -11.344,0.08 -17.44,0.08 C 131.024,284.416 88,319.984 88,356.896 c 0,36.352 47.168,59.12 103.056,59.12 63.728,0 98.928,-36.192 98.928,-72.544 0,-29.136 -8.608,-46.608 -35.184,-65.456 -9.104,-6.416 -26.496,-22.08 -26.496,-31.296 0,-10.784 3.072,-16.096 19.328,-28.8 16.624,-12.992 28.416,-28.496 28.416,-49.776 0,-25.296 -10.88,-56.16 -32.048,-56.16 l 36,0 16,-16.000002 z M 262.896,337.168 c 0.768,3.392 1.232,6.864 1.232,10.384 0,29.376 -18.96,52.336 -73.28,52.336 -38.64,0 -66.528,-24.448 -66.528,-53.824 0,-28.784 34.608,-52.768 73.264,-52.336 8.992,0.096 17.408,1.552 25.024,3.984 20.976,14.608 36.016,22.848 40.288,39.456 z M 201.008,227.584 c -25.936,-0.752 -50.592,-29.008 -55.056,-63.04 -4.464,-34.08 12.928,-60.144 38.848,-59.376 25.92,0.8 50.592,28.128 55.056,62.176 4.48,34.048 -12.912,61.008 -38.848,60.24 z" /><polygon transform="matrix(16,0,0,16,-8,-0.016)" style="fill:#ffffff" points="22,18.993 24,18.993 24,15.993 27,15.993 27,13.993 24,13.993 24,10.993 22,10.993 22,13.993 19,13.993 19,15.993 22,15.993 "/></g></g><g transform="translate(-819.672,-557.92999)"/></svg>
