<svg viewBox="0 0 16 16"><path fill="#828282" d="m 14.827839,0.09757358 -13.6360892,0 c -0.65297785,0 -1.18222225,0.513067 -1.18222225,1.14631102 l 0,13.7068454 c 0,0.633244 0.5294222,1.146844 1.18222225,1.146844 l 13.6360892,0 c 0.652978,0 1.181511,-0.513778 1.181511,-1.146844 l 0,-13.7068454 c 0,-0.63306702 -0.528533,-1.14631102 -1.181511,-1.14631102 z M 4.8601943,13.490641 l -2.4174223,0 0,-7.2238234 2.4174223,0 0,7.2238234 z m -1.2085334,-8.2106674 -0.016178,0 c -0.8106667,0 -1.3361778,-0.554489 -1.3361778,-1.248533 0,-0.708089 0.5409778,-1.247467 1.3676444,-1.247467 0.8268445,0 1.3354667,0.5392 1.3514667,1.247467 0,0.694222 -0.5244445,1.248533 -1.3667556,1.248533 z m 9.9228451,8.2106674 -2.416711,0 0,-3.8648894 c 0,-0.971378 -0.350223,-1.633956 -1.224178,-1.633956 -0.6686224,0 -1.0654224,0.447111 -1.2396454,0.878578 -0.06471,0.154311 -0.08053,0.369778 -0.08053,0.585244 l 0,4.0348454 -2.416355,0 c 0,0 0.03164,-6.5463114 0,-7.2238224 l 2.416533,0 0,1.024177 c 0.320889,-0.492088 0.894044,-1.194133 2.1776004,-1.194133 1.590578,0 2.783289,1.031822 2.783289,3.251733 l 0,4.1422234 z M 8.5979716,7.3137516 c 0.0043,-0.0068 0.01,-0.01493 0.01564,-0.02276 l 0,0.02276 -0.01564,0 z"/></svg>
