<svg viewBox="0 0 451.56557 451.56558" style="fill-rule:evenodd"><path d="m 420.14582,450.182 30.92099,-28.451 0.97227,-15.96693 L 311.68757,254.081 c 17.9301,-36.79225 22.47753,-66.30428 23.33657,-93.513 C 330.26886,69.18237 261.49533,1.6135753 170.2986,-0.25246371 71.899599,-7.3554968 -2.663353,68.797783 0.79508966,168.31515 1.728151,213.81035 48.543498,310.9221 170.45636,322.892 c 44.46343,-3.274 51.66785,-7.169 88.46374,-22.022 L 404.32666,450.676 Z M 51.375886,167.56669 C 55.489319,228.28235 130.0792,273.28312 170.18834,273.2123 250.00142,273.07137 286.09577,211.20336 281.47535,161.37992 277.0005,56.48159 179.92015,48.856154 170.86883,47.575155 117.68502,40.048257 44.592973,85.512625 51.375886,167.56669 Z" /></svg>